<svg width="175" height="30" viewBox="0 0 175 30" fill="none" xmlns="http://www.w3.org/2000/svg">
<path d="M11.8 29.4C10.6267 29.4 9.45334 29.3067 8.28001 29.12C7.10668 28.96 6.00001 28.7067 4.96001 28.36C3.92001 27.9867 2.98667 27.5333 2.16001 27C1.68001 26.68 1.34667 26.2933 1.16001 25.84C0.973341 25.3867 0.906675 24.9467 0.960008 24.52C1.04001 24.0667 1.21334 23.68 1.48001 23.36C1.77334 23.0133 2.13334 22.8 2.56001 22.72C2.98667 22.64 3.45334 22.76 3.96001 23.08C5.13334 23.7733 6.37334 24.28 7.68001 24.6C8.98667 24.92 10.36 25.08 11.8 25.08C13.9067 25.08 15.44 24.7333 16.4 24.04C17.36 23.32 17.84 22.4 17.84 21.28C17.84 20.3467 17.4933 19.6133 16.8 19.08C16.1333 18.5467 14.9733 18.1067 13.32 17.76L8.92001 16.84C6.38667 16.3067 4.49334 15.4133 3.24001 14.16C2.01334 12.88 1.40001 11.2 1.40001 9.12C1.40001 7.81333 1.66667 6.62667 2.20001 5.56C2.73334 4.49333 3.48001 3.57333 4.44001 2.8C5.42667 2.02667 6.58667 1.44 7.92001 1.04C9.28001 0.613332 10.7733 0.399999 12.4 0.399999C14 0.399999 15.52 0.599999 16.96 0.999999C18.4 1.4 19.6933 1.98667 20.84 2.76C21.2667 3.05333 21.5467 3.41333 21.68 3.84C21.84 4.26667 21.88 4.69333 21.8 5.12C21.72 5.52 21.5333 5.86667 21.24 6.16C20.9467 6.45333 20.5733 6.62667 20.12 6.68C19.6933 6.73333 19.2 6.6 18.64 6.28C17.6533 5.72 16.6533 5.32 15.64 5.08C14.6267 4.84 13.5333 4.72 12.36 4.72C11.1333 4.72 10.08 4.89333 9.20001 5.24C8.32001 5.58667 7.64001 6.08 7.16001 6.72C6.70667 7.33333 6.48001 8.06667 6.48001 8.92C6.48001 9.88 6.80001 10.6533 7.44001 11.24C8.08001 11.8 9.17334 12.24 10.72 12.56L15.08 13.48C17.72 14.04 19.68 14.92 20.96 16.12C22.2667 17.32 22.92 18.92 22.92 20.92C22.92 22.2 22.6533 23.36 22.12 24.4C21.6133 25.44 20.8667 26.3333 19.88 27.08C18.92 27.8267 17.76 28.4 16.4 28.8C15.04 29.2 13.5067 29.4 11.8 29.4Z" fill="#FCF1F1"/>
<path d="M29.3144 29.32C28.5144 29.32 27.901 29.1067 27.4744 28.68C27.0477 28.2267 26.8344 27.5867 26.8344 26.76V3C26.8344 2.17333 27.0477 1.54667 27.4744 1.12C27.901 0.693332 28.5144 0.479998 29.3144 0.479998C30.1144 0.479998 30.7277 0.693332 31.1544 1.12C31.6077 1.54667 31.8344 2.17333 31.8344 3V13.36H31.2744C31.8611 11.9467 32.7677 10.88 33.9944 10.16C35.2477 9.41333 36.661 9.04 38.2344 9.04C39.8077 9.04 41.101 9.33333 42.1144 9.92C43.1277 10.5067 43.8877 11.4 44.3944 12.6C44.901 13.7733 45.1544 15.2667 45.1544 17.08V26.76C45.1544 27.5867 44.9411 28.2267 44.5144 28.68C44.0877 29.1067 43.4744 29.32 42.6744 29.32C41.8744 29.32 41.2477 29.1067 40.7944 28.68C40.3677 28.2267 40.1544 27.5867 40.1544 26.76V17.32C40.1544 15.8 39.8611 14.6933 39.2744 14C38.7144 13.3067 37.8344 12.96 36.6344 12.96C35.1677 12.96 33.9944 13.4267 33.1144 14.36C32.2611 15.2667 31.8344 16.48 31.8344 18V26.76C31.8344 28.4667 30.9944 29.32 29.3144 29.32Z" fill="#FCF1F1"/>
<path d="M56.6728 29.4C55.2595 29.4 53.9928 29.1333 52.8728 28.6C51.7795 28.04 50.9128 27.2933 50.2728 26.36C49.6595 25.4267 49.3528 24.3733 49.3528 23.2C49.3528 21.76 49.7262 20.6267 50.4728 19.8C51.2195 18.9467 52.4328 18.3333 54.1128 17.96C55.7928 17.5867 58.0462 17.4 60.8728 17.4H62.8728V20.28H60.9128C59.2595 20.28 57.9395 20.36 56.9528 20.52C55.9662 20.68 55.2595 20.96 54.8328 21.36C54.4328 21.7333 54.2328 22.2667 54.2328 22.96C54.2328 23.84 54.5395 24.56 55.1528 25.12C55.7662 25.68 56.6195 25.96 57.7128 25.96C58.5928 25.96 59.3662 25.76 60.0328 25.36C60.7262 24.9333 61.2728 24.36 61.6728 23.64C62.0728 22.92 62.2728 22.0933 62.2728 21.16V16.56C62.2728 15.2267 61.9795 14.2667 61.3928 13.68C60.8062 13.0933 59.8195 12.8 58.4328 12.8C57.6595 12.8 56.8195 12.8933 55.9128 13.08C55.0328 13.2667 54.0995 13.5867 53.1128 14.04C52.6062 14.28 52.1528 14.3467 51.7528 14.24C51.3795 14.1333 51.0862 13.92 50.8728 13.6C50.6595 13.2533 50.5528 12.88 50.5528 12.48C50.5528 12.08 50.6595 11.6933 50.8728 11.32C51.0862 10.92 51.4462 10.6267 51.9528 10.44C53.1795 9.93333 54.3528 9.57333 55.4728 9.36C56.6195 9.14667 57.6595 9.04 58.5928 9.04C60.5128 9.04 62.0862 9.33333 63.3128 9.92C64.5662 10.5067 65.4995 11.4 66.1128 12.6C66.7262 13.7733 67.0328 15.2933 67.0328 17.16V26.76C67.0328 27.5867 66.8328 28.2267 66.4328 28.68C66.0328 29.1067 65.4595 29.32 64.7128 29.32C63.9662 29.32 63.3795 29.1067 62.9528 28.68C62.5528 28.2267 62.3528 27.5867 62.3528 26.76V24.84H62.6728C62.4862 25.7733 62.1128 26.5867 61.5528 27.28C61.0195 27.9467 60.3395 28.4667 59.5128 28.84C58.6862 29.2133 57.7395 29.4 56.6728 29.4Z" fill="#FCF1F1"/>
<path d="M74.6678 29.32C73.8412 29.32 73.2012 29.1067 72.7478 28.68C72.3212 28.2267 72.1078 27.5867 72.1078 26.76V11.64C72.1078 10.8133 72.3212 10.1867 72.7478 9.76C73.1745 9.33333 73.7745 9.12 74.5478 9.12C75.3212 9.12 75.9212 9.33333 76.3478 9.76C76.7745 10.1867 76.9878 10.8133 76.9878 11.64V14.16H76.5878C76.9612 12.56 77.6945 11.3467 78.7878 10.52C79.8812 9.69333 81.3345 9.2 83.1478 9.04C83.7078 8.98667 84.1478 9.13333 84.4678 9.48C84.8145 9.8 85.0145 10.3067 85.0678 11C85.1212 11.6667 84.9612 12.2133 84.5878 12.64C84.2412 13.04 83.7078 13.28 82.9878 13.36L82.1078 13.44C80.4812 13.6 79.2545 14.1067 78.4278 14.96C77.6012 15.7867 77.1878 16.96 77.1878 18.48V26.76C77.1878 27.5867 76.9745 28.2267 76.5478 28.68C76.1212 29.1067 75.4945 29.32 74.6678 29.32Z" fill="#FCF1F1"/>
<path d="M90.2519 29.32C89.4519 29.32 88.8385 29.1067 88.4119 28.68C87.9852 28.2267 87.7719 27.5867 87.7719 26.76V3C87.7719 2.17333 87.9852 1.54667 88.4119 1.12C88.8385 0.693332 89.4519 0.479998 90.2519 0.479998C91.0519 0.479998 91.6652 0.693332 92.0919 1.12C92.5452 1.54667 92.7719 2.17333 92.7719 3V17.76H92.8519L99.4519 10.8C99.9852 10.2667 100.452 9.85333 100.852 9.56C101.252 9.26667 101.799 9.12 102.492 9.12C103.185 9.12 103.705 9.30667 104.052 9.68C104.425 10.0267 104.612 10.4533 104.612 10.96C104.612 11.4667 104.372 11.9733 103.892 12.48L96.9319 19.84V17.76L104.572 26C105.052 26.5067 105.265 27.0267 105.212 27.56C105.185 28.0667 104.972 28.4933 104.572 28.84C104.172 29.16 103.665 29.32 103.052 29.32C102.305 29.32 101.705 29.1733 101.252 28.88C100.825 28.5867 100.345 28.1467 99.8119 27.56L92.8519 20.28H92.7719V26.76C92.7719 28.4667 91.9319 29.32 90.2519 29.32Z" fill="#FCF1F1"/>
<path d="M112.297 29C111.471 29 110.831 28.7733 110.377 28.32C109.924 27.84 109.697 27.1867 109.697 26.36V3.28C109.697 2.42667 109.911 1.78667 110.337 1.36C110.791 0.906666 111.431 0.68 112.257 0.68C113.084 0.68 113.711 0.906666 114.137 1.36C114.591 1.78667 114.817 2.42667 114.817 3.28V24.64H126.417C127.137 24.64 127.684 24.8267 128.057 25.2C128.457 25.5733 128.657 26.1067 128.657 26.8C128.657 27.4933 128.457 28.04 128.057 28.44C127.684 28.8133 127.137 29 126.417 29H112.297Z" fill="#FCF1F1"/>
<path d="M134.158 29.28C133.358 29.28 132.745 29.04 132.318 28.56C131.891 28.08 131.678 27.4133 131.678 26.56V11.88C131.678 11 131.891 10.3333 132.318 9.88C132.745 9.4 133.358 9.16 134.158 9.16C134.958 9.16 135.571 9.4 135.998 9.88C136.451 10.3333 136.678 11 136.678 11.88V26.56C136.678 27.4133 136.465 28.08 136.038 28.56C135.611 29.04 134.985 29.28 134.158 29.28ZM134.158 5.44C133.225 5.44 132.491 5.21333 131.958 4.76C131.451 4.28 131.198 3.62667 131.198 2.8C131.198 1.94667 131.451 1.29333 131.958 0.839998C132.491 0.386666 133.225 0.16 134.158 0.16C135.118 0.16 135.851 0.386666 136.358 0.839998C136.865 1.29333 137.118 1.94667 137.118 2.8C137.118 3.62667 136.865 4.28 136.358 4.76C135.851 5.21333 135.118 5.44 134.158 5.44Z" fill="#FCF1F1"/>
<path d="M149.033 29.4C147.887 29.4 146.673 29.28 145.393 29.04C144.113 28.8 142.967 28.3867 141.953 27.8C141.527 27.5333 141.22 27.2267 141.033 26.88C140.873 26.5067 140.807 26.1467 140.833 25.8C140.887 25.4267 141.02 25.1067 141.233 24.84C141.473 24.5733 141.767 24.4 142.113 24.32C142.487 24.24 142.887 24.3067 143.313 24.52C144.38 25.0267 145.38 25.3867 146.313 25.6C147.247 25.7867 148.167 25.88 149.073 25.88C150.353 25.88 151.3 25.6667 151.913 25.24C152.553 24.7867 152.873 24.2 152.873 23.48C152.873 22.8667 152.66 22.4 152.233 22.08C151.833 21.7333 151.22 21.48 150.393 21.32L146.393 20.56C144.74 20.24 143.473 19.64 142.593 18.76C141.74 17.8533 141.313 16.6933 141.313 15.28C141.313 14 141.66 12.8933 142.353 11.96C143.073 11.0267 144.06 10.3067 145.313 9.8C146.567 9.29333 148.007 9.04 149.633 9.04C150.807 9.04 151.9 9.17333 152.913 9.44C153.953 9.68 154.953 10.0667 155.913 10.6C156.313 10.8133 156.58 11.0933 156.713 11.44C156.873 11.7867 156.913 12.1467 156.833 12.52C156.753 12.8667 156.593 13.1867 156.353 13.48C156.113 13.7467 155.807 13.92 155.433 14C155.087 14.0533 154.687 13.9733 154.233 13.76C153.407 13.3333 152.607 13.0267 151.833 12.84C151.087 12.6533 150.367 12.56 149.673 12.56C148.367 12.56 147.393 12.7867 146.753 13.24C146.14 13.6933 145.833 14.2933 145.833 15.04C145.833 15.6 146.02 16.0667 146.393 16.44C146.767 16.8133 147.34 17.0667 148.113 17.2L152.113 17.96C153.847 18.28 155.153 18.8667 156.033 19.72C156.94 20.5733 157.393 21.72 157.393 23.16C157.393 25.1067 156.633 26.64 155.113 27.76C153.593 28.8533 151.567 29.4 149.033 29.4Z" fill="#FCF1F1"/>
<path d="M170.169 29.4C168.436 29.4 166.983 29.1067 165.809 28.52C164.663 27.9333 163.809 27.08 163.249 25.96C162.689 24.8133 162.409 23.4 162.409 21.72V13.2H160.329C159.689 13.2 159.196 13.04 158.849 12.72C158.503 12.3733 158.329 11.9067 158.329 11.32C158.329 10.7067 158.503 10.24 158.849 9.92C159.196 9.6 159.689 9.44 160.329 9.44H162.409V5.8C162.409 4.97333 162.623 4.34667 163.049 3.92C163.503 3.49333 164.129 3.28 164.929 3.28C165.729 3.28 166.343 3.49333 166.769 3.92C167.196 4.34667 167.409 4.97333 167.409 5.8V9.44H171.649C172.289 9.44 172.783 9.6 173.129 9.92C173.476 10.24 173.649 10.7067 173.649 11.32C173.649 11.9067 173.476 12.3733 173.129 12.72C172.783 13.04 172.289 13.2 171.649 13.2H167.409V21.44C167.409 22.72 167.689 23.68 168.249 24.32C168.809 24.96 169.716 25.28 170.969 25.28C171.423 25.28 171.823 25.24 172.169 25.16C172.516 25.08 172.823 25.0267 173.089 25C173.409 24.9733 173.676 25.08 173.889 25.32C174.103 25.5333 174.209 25.9867 174.209 26.68C174.209 27.2133 174.116 27.6933 173.929 28.12C173.769 28.52 173.463 28.8 173.009 28.96C172.663 29.0667 172.209 29.16 171.649 29.24C171.089 29.3467 170.596 29.4 170.169 29.4Z" fill="#FCF1F1"/>
</svg>
